<?xml version="1.0" standalone="no"?>
<!DOCTYPE svg PUBLIC "-//W3C//DTD SVG 20010904//EN"
 "http://www.w3.org/TR/2001/REC-SVG-20010904/DTD/svg10.dtd">
<svg version="1.0" xmlns="http://www.w3.org/2000/svg"
 width="1280.000000pt" height="1266.000000pt" viewBox="0 0 1280.000000 1266.000000"
 preserveAspectRatio="xMidYMid meet">
<g transform="translate(0.000000,1266.000000) scale(0.100000,-0.100000)"
fill="#000000" stroke="none">
<path d="M6165 12649 c-55 -4 -170 -13 -255 -19 -2132 -153 -4065 -1380 -5108
-3241 -392 -701 -648 -1487 -747 -2299 -21 -173 -55 -643 -55 -758 0 -53 4
-146 10 -206 5 -61 14 -181 20 -266 83 -1146 502 -2273 1199 -3225 511 -700
1178 -1300 1936 -1745 202 -118 630 -326 850 -414 556 -220 1122 -361 1705
-425 96 -11 299 -27 451 -37 289 -19 290 -19 769 17 1260 94 2477 567 3480
1354 358 281 571 494 1219 1219 289 324 527 594 529 601 2 8 -1725 1559 -1916
1720 l-31 26 -533 -598 c-651 -730 -782 -854 -1153 -1098 -506 -332 -1022
-519 -1660 -602 -193 -25 -679 -25 -877 0 -782 98 -1435 377 -2038 871 -123
100 -400 383 -503 512 -466 584 -718 1187 -809 1934 -17 139 -17 612 0 750 59
469 163 828 352 1215 254 521 622 966 1095 1325 549 417 1170 662 1905 752
139 17 660 17 800 0 500 -61 934 -188 1339 -392 310 -155 619 -370 885 -614
106 -97 486 -513 486 -532 0 -6 -275 -253 -611 -550 -551 -485 -609 -539 -588
-546 13 -4 564 -134 1224 -288 660 -155 1488 -349 1840 -431 1242 -291 1416
-331 1420 -327 3 2 0 42 -6 89 -5 46 -46 755 -89 1574 -44 820 -84 1571 -90
1670 -5 99 -14 268 -20 375 -6 107 -15 269 -20 360 -5 91 -14 271 -21 400 -6
129 -14 254 -18 277 l-6 42 -510 -450 c-280 -247 -517 -449 -525 -449 -9 0
-100 94 -204 210 -336 375 -665 680 -1010 937 -827 618 -1805 1032 -2829 1198
-225 36 -386 53 -697 75 -287 21 -418 23 -585 9z"/>
</g>
</svg>
